<svg id="图层_1" data-name="图层 1" xmlns="http://www.w3.org/2000/svg" viewBox="0 0 1000 1000"><defs><style>.cls-1{fill:#fff;}</style></defs><g id="组_6630-7" data-name="组 6630-7"><g id="路径_27-4" data-name="路径 27-4"><path id="路径_1764-4" data-name="路径 1764-4" class="cls-1" d="M484.35,994.82C278.84,994.4,94.81,867.66,21.45,676a16.56,16.56,0,0,1,31-11.78c91,238.27,358.19,357.8,596.86,267s358.4-357.58,267.43-595.85S558.51-22.42,319.84,68.39h0a16.54,16.54,0,1,1-12-30.8l.26-.1C564-59.44,850.12,69.08,947.22,324.55S915.58,865.71,659.67,962.64a496.24,496.24,0,0,1-175.31,32.18Z"/></g><g id="路径_28-4" data-name="路径 28-4"><path id="路径_1765-4" data-name="路径 1765-4" class="cls-1" d="M484.34,931.4a431.41,431.41,0,0,1-178.67-38.92C88.79,794-7.42,537.75,91.21,321.23,190,104.37,446.19,8.52,663.42,107.14A33.53,33.53,0,1,1,636,168.35l-.4-.18C452.15,84.87,235.78,165.83,152.34,349S150,748.15,333.48,831.45s399.83,2.33,483.27-180.82A33.57,33.57,0,0,1,878.06,678l-.18.38a433.24,433.24,0,0,1-393.56,253Z"/></g><g id="组_6630-8" data-name="组 6630-8"><path id="路径_1766-4" data-name="路径 1766-4" class="cls-1" d="M157.9,529c-.18-2.59-.32-5.19-.44-7.78C157.59,523.86,157.71,526.46,157.9,529Z"/><path id="路径_1767-4" data-name="路径 1767-4" class="cls-1" d="M157.33,517.79c0,1.16.08,2.32.12,3.48-.06-1.27-.12-2.54-.15-3.81A1.84,1.84,0,0,0,157.33,517.79Z"/><path id="路径_1768-4" data-name="路径 1768-4" class="cls-1" d="M783.39,652.27a335,335,0,0,1-16.46,29.29c-97.48,154-301.57,200-455.84,102.66A330.89,330.89,0,0,1,159.43,544.83c-.22-1.74-.41-3.48-.6-5.22-.22-2-.39-4-.56-5.93-.13-1.55-.26-3.1-.37-4.65-.13-1.93-.26-3.86-.33-5.78s-.19-3.65-.23-5.48a1.82,1.82,0,0,1,0-.32,2.55,2.55,0,0,1,0-.39c0-1.51-.09-3-.13-4.54,0-.68,0-1.37,0-2A325,325,0,0,1,168.35,421c1-3.7,2.07-7.35,3.19-11s2.33-7.31,3.58-10.92q2.81-8.16,6.09-16.18c1.46-3.55,3-7.08,4.54-10.62,2.39-5.28,4.89-10.51,7.55-15.71,1.77-3.43,3.61-6.88,5.51-10.27.95-1.7,1.92-3.39,2.89-5.09q3-5.06,6.09-10.06C304.66,176.9,508.43,130.26,662.92,227l.34.22a57.15,57.15,0,1,1-60.17,97.19l-.68-.43c-101-63.29-234.35-32.82-297.75,68.05a215.32,215.32,0,0,0-32.52,129.26c0,.86.11,1.7.19,2.56.09,1.16.19,2.34.33,3.5a218.32,218.32,0,0,0,10.2,46.7c38,112.86,160.39,173.63,273.45,135.73a215.82,215.82,0,0,0,124.6-108.36,57.21,57.21,0,0,1,102.48,50.89Z"/></g><g id="矩形_7-4" data-name="矩形 7-4"><path id="路径_1769-4" data-name="路径 1769-4" class="cls-1" d="M818.3,394.65h0a82.15,82.15,0,0,1-51.85,104.06h0L532.31,577.18a82.36,82.36,0,0,1-104.24-51.76h0a82.16,82.16,0,0,1,51.85-104.06h0L714.06,342.9A82.35,82.35,0,0,1,818.3,394.64Z"/></g></g></svg>