<svg id="图层_1" data-name="图层 1" xmlns="http://www.w3.org/2000/svg" viewBox="0 0 400 400"><defs><style>.cls-1{fill:#212121;}.cls-2{fill:#4e9bc6;}</style></defs><g id="路径_27-4" data-name="路径 27-4"><path id="路径_1764-4" data-name="路径 1764-4" class="cls-1" d="M193.73,398.17A198.89,198.89,0,0,1,8.35,270.49a6.63,6.63,0,0,1,12.4-4.72c36.43,95.42,143.45,143.29,239,106.92s143.53-143.2,107.1-238.62S223.43-9.22,127.85,27.15h0A6.63,6.63,0,1,1,123,14.81l.11,0c102.48-38.82,217.09,12.65,256,115S366.43,346.46,264,385.28a198.86,198.86,0,0,1-70.21,12.88Z"/></g><g id="路径_28-4" data-name="路径 28-4"><path id="路径_1765-4" data-name="路径 1765-4" class="cls-2" d="M193.73,372.77a172.85,172.85,0,0,1-71.56-15.59C35.32,317.74-3.21,215.12,36.29,128.41S178.45,3.17,265.45,42.67a13.43,13.43,0,1,1-11,24.51l-.16-.07c-73.47-33.36-160.13-.94-193.54,72.41a145.81,145.81,0,0,0,72.54,193.22c73.48,33.36,160.13.93,193.54-72.42a13.44,13.44,0,0,1,24.55,11l-.06.15A173.53,173.53,0,0,1,193.72,372.77Z"/></g><g id="组_6630-8" data-name="组 6630-8"><path id="路径_1766-4" data-name="路径 1766-4" class="cls-2" d="M63,211.63c-.08-1-.13-2.08-.18-3.12C62.87,209.56,62.92,210.6,63,211.63Z"/><path id="路径_1767-4" data-name="路径 1767-4" class="cls-2" d="M62.77,207.12c0,.47,0,.93,0,1.4q0-.77-.06-1.53A.28.28,0,0,0,62.77,207.12Z"/><path id="路径_1768-4" data-name="路径 1768-4" class="cls-2" d="M313.49,261q-3,6-6.59,11.73A132.42,132.42,0,0,1,63.61,218c-.09-.69-.17-1.39-.24-2.09s-.16-1.58-.23-2.37c0-.62-.1-1.24-.14-1.86-.06-.78-.11-1.55-.14-2.32s-.07-1.46-.09-2.19a.62.62,0,0,1,0-.13.86.86,0,0,1,0-.16c0-.6,0-1.21,0-1.81,0-.28,0-.56,0-.82a129.94,129.94,0,0,1,4.49-35.85c.4-1.48.83-2.94,1.28-4.4s.93-2.93,1.43-4.37c.75-2.18,1.57-4.34,2.44-6.48.59-1.42,1.19-2.84,1.82-4.26,1-2.11,2-4.2,3-6.29.71-1.37,1.45-2.75,2.21-4.11.38-.68.77-1.36,1.16-2,.78-1.35,1.6-2.69,2.44-4A132.36,132.36,0,0,1,265.25,90.65l.13.09a22.89,22.89,0,1,1-24.09,38.92,2.61,2.61,0,0,1-.28-.17,86.45,86.45,0,0,0-132.26,79c0,.35,0,.68.07,1s.08.94.13,1.41a88.1,88.1,0,0,0,4.09,18.7,86.53,86.53,0,0,0,159.41,11,22.91,22.91,0,0,1,41,20.38Z"/></g><g id="矩形_7-4" data-name="矩形 7-4"><path id="路径_1769-4" data-name="路径 1769-4" class="cls-1" d="M327.47,157.81h0a32.89,32.89,0,0,1-20.76,41.67h0l-93.77,31.42a33,33,0,0,1-41.75-20.73h0A32.9,32.9,0,0,1,192,168.51h0l93.77-31.43a33,33,0,0,1,41.74,20.73Z"/></g></svg>