<svg id="图层_1" data-name="图层 1" xmlns="http://www.w3.org/2000/svg" viewBox="0 0 400 560"><defs><style>.cls-1{fill:#fff;}.cls-2{fill:#4e9bc6;}</style></defs><g id="组_6643" data-name="组 6643"><path id="路径_3-3" data-name="路径 3-3" class="cls-1" d="M83.26,518.68h30.11v.54c0,12.47-3.72,22.63-10.84,29.52C95,556.06,86,558,77.67,558c-10.62,0-18.18-3.06-24.86-9.95a38.22,38.22,0,0,1,27.27-65.7A39.66,39.66,0,0,1,99.14,487,33.17,33.17,0,0,1,111,497.91l-8.87,6.23a29.71,29.71,0,0,0-9-8.31,24.61,24.61,0,0,0-12.92-3.17,26.35,26.35,0,0,0-19.27,7.54c-4.82,4.81-7.78,12.57-7.78,20.44a29.32,29.32,0,0,0,7.56,19.79c5,5.36,11.28,7.32,18.29,7.32A21.91,21.91,0,0,0,95.3,541.3,19.47,19.47,0,0,0,101.43,529H83.26Z"/><path id="路径_4-3" data-name="路径 4-3" class="cls-1" d="M177.65,539H146.44l-8,17.6h-12l36.36-77.18,34.6,77.18h-12Zm-4.49-10.49-10.84-24.71L151,528.52Z"/><path id="路径_5-3" data-name="路径 5-3" class="cls-1" d="M213.13,556.61l15.34-78.39,25.4,56.63,25.63-56.63,13.79,78.39H281.9l-7.44-44L253.21,560l-21-47.44-7.66,44.05Z"/><path id="路径_6-3" data-name="路径 6-3" class="cls-1" d="M357.68,494.19H328.55v18.48h28.26v10.49H328.55v23h29.13v10.49H317.39V483.7h40.29Z"/></g><g id="路径_27-4" data-name="路径 27-4"><path id="路径_1764-4" data-name="路径 1764-4" class="cls-1" d="M193.48,412.7A207.09,207.09,0,0,1,.43,279.75a6.91,6.91,0,0,1,12.91-4.91C51.28,374.2,162.72,424.05,262.25,386.18S411.71,237.06,373.78,137.7,224.4-11.51,124.87,26.36h0a6.9,6.9,0,1,1-5-12.84l.11,0C226.67-26.95,346,26.65,386.5,133.19S373.31,358.86,266.59,399.28a206.83,206.83,0,0,1-73.11,13.42Z"/></g><g id="路径_28-4" data-name="路径 28-4"><path id="路径_1765-4" data-name="路径 1765-4" class="cls-2" d="M193.47,386.26A179.89,179.89,0,0,1,119,370C28.51,329-11.61,222.09,29.53,131.8c41.19-90.44,148-130.41,238.62-89.28A14,14,0,1,1,256.72,68l-.16-.07C180.05,33.23,89.81,67,55,143.38s-1,166.46,75.54,201.19,166.74,1,201.53-75.4a14,14,0,0,1,25.57,11.41c0,.06-.05.11-.07.16A180.69,180.69,0,0,1,193.46,386.26Z"/></g><g id="组_6630-8" data-name="组 6630-8"><path id="路径_1766-4" data-name="路径 1766-4" class="cls-2" d="M57.34,218.46c-.08-1.08-.14-2.16-.19-3.24C57.21,216.3,57.26,217.39,57.34,218.46Z"/><path id="路径_1767-4" data-name="路径 1767-4" class="cls-2" d="M57.1,213.77c0,.48,0,1,0,1.45,0-.53,0-1.06-.06-1.58A.57.57,0,0,0,57.1,213.77Z"/><path id="路径_1768-4" data-name="路径 1768-4" class="cls-2" d="M318.18,269.85a137.85,137.85,0,0,1-254-17.48A138.32,138.32,0,0,1,58,225.05c-.09-.73-.17-1.45-.25-2.18s-.16-1.65-.23-2.47c-.05-.65-.11-1.29-.15-1.94-.06-.81-.11-1.61-.14-2.41s-.08-1.52-.1-2.29a.57.57,0,0,1,0-.13.92.92,0,0,1,0-.16c0-.63,0-1.27,0-1.9,0-.28,0-.57,0-.85A135.14,135.14,0,0,1,61.7,173.4c.41-1.54.86-3.07,1.32-4.59s1-3.05,1.5-4.55q1.17-3.4,2.54-6.75c.61-1.48,1.24-2.95,1.89-4.43,1-2.2,2-4.38,3.15-6.55.74-1.43,1.5-2.87,2.3-4.28.39-.71.8-1.42,1.2-2.13q1.23-2.1,2.54-4.19a137.82,137.82,0,0,1,189.8-43.44l.14.09A23.83,23.83,0,1,1,243,133.11l-.28-.18A90,90,0,0,0,105,215.22c0,.35,0,.7.08,1.06s.08,1,.13,1.46a90.11,90.11,0,0,0,170.25,30.89,23.86,23.86,0,0,1,42.74,21.22Z"/></g><g id="矩形_7-4" data-name="矩形 7-4"><path id="路径_1769-4" data-name="路径 1769-4" class="cls-1" d="M332.74,162.42h0a34.27,34.27,0,0,1-21.62,43.4h0l-97.64,32.72A34.35,34.35,0,0,1,170,217h0a34.26,34.26,0,0,1,21.63-43.39h0l97.64-32.72a34.34,34.34,0,0,1,43.47,21.58Z"/></g></svg>