<svg id="图层_1" data-name="图层 1" xmlns="http://www.w3.org/2000/svg" viewBox="0 0 1200 400"><defs><style>.cls-1{fill:#212121;}.cls-2{fill:#4e9bc6;}</style></defs><g id="组_6643" data-name="组 6643"><path id="路径_3-3" data-name="路径 3-3" class="cls-1" d="M501.83,196.4h75.48v1.37c0,31.24-9.34,56.72-27.17,74C531.2,290.1,508.7,295,487.83,295c-26.62,0-45.55-7.68-62.29-24.94a95.78,95.78,0,0,1,68.34-164.66A99.15,99.15,0,0,1,541.63,117a83.15,83.15,0,0,1,29.64,27.4L549,160a74.4,74.4,0,0,0-22.51-20.83,61.73,61.73,0,0,0-32.38-7.95,66.2,66.2,0,0,0-48.31,18.91c-12.07,12.05-19.48,31.51-19.48,51.23a73.47,73.47,0,0,0,18.94,49.6c12.62,13.42,28.27,18.35,45.83,18.35A55,55,0,0,0,532,253.11a48.94,48.94,0,0,0,15.37-31H501.83Z"/><path id="路径_4-3" data-name="路径 4-3" class="cls-1" d="M738.41,247.36H660.19l-20,44.12H610L701.08,98.05l86.73,193.43H757.62Zm-11.25-26.3L700,159.14l-28.27,61.92Z"/><path id="路径_5-3" data-name="路径 5-3" class="cls-1" d="M827.34,291.46,865.76,95l63.68,141.92L993.66,95l34.57,196.44H999.69L981,181.32,927.77,300l-52.7-118.91L855.86,291.48Z"/><path id="路径_6-3" data-name="路径 6-3" class="cls-1" d="M1189.61,135h-73v46.31h70.8v26.3h-70.8v57.54h73v26.3h-101V108.73h101Z"/></g><g id="路径_27-4" data-name="路径 27-4"><path id="路径_1764-4" data-name="路径 1764-4" class="cls-1" d="M149.32,348.18A148.71,148.71,0,0,1,10.7,252.71,5,5,0,0,1,20,249.18c27.24,71.35,107.27,107.15,178.74,79.95A138.19,138.19,0,0,0,278.8,150.7C251.55,79.35,171.53,43.55,100.06,70.75h0a5,5,0,1,1-3.61-9.23l.08,0c76.63-29,162.33,9.45,191.41,86s-9.48,162.06-86.12,191.08a148.52,148.52,0,0,1-52.5,9.64Z"/></g><g id="路径_28-4" data-name="路径 28-4"><path id="路径_1765-4" data-name="路径 1765-4" class="cls-2" d="M149.32,329.19a129.15,129.15,0,0,1-53.51-11.66C30.86,288,2.06,211.3,31.59,146.47A129.49,129.49,0,0,1,203,82.35a10,10,0,1,1-8.21,18.33l-.12-.05a109.13,109.13,0,1,0,54.24,144.48,10.05,10.05,0,0,1,18.36,8.19.61.61,0,0,1-.05.12,129.76,129.76,0,0,1-117.86,75.77Z"/></g><g id="组_6630-8" data-name="组 6630-8"><path id="路径_1766-4" data-name="路径 1766-4" class="cls-2" d="M51.56,208.7c-.05-.78-.1-1.56-.13-2.33C51.47,207.15,51.5,207.92,51.56,208.7Z"/><path id="路径_1767-4" data-name="路径 1767-4" class="cls-2" d="M51.39,205.33c0,.34,0,.69,0,1,0-.38,0-.76,0-1.14A.34.34,0,0,0,51.39,205.33Z"/><path id="路径_1768-4" data-name="路径 1768-4" class="cls-2" d="M238.87,245.6A99,99,0,0,1,52,213.42l-.18-1.56c-.07-.59-.12-1.18-.17-1.78s-.08-.92-.11-1.39-.08-1.15-.1-1.73-.05-1.09-.07-1.64v-.1a.37.37,0,0,1,0-.11c0-.45,0-.91,0-1.36,0-.21,0-.41,0-.61a97.34,97.34,0,0,1,3.36-26.8c.3-1.11.62-2.2,1-3.3s.69-2.19,1.07-3.27q.84-2.45,1.82-4.84c.44-1.07.89-2.12,1.36-3.18.72-1.59,1.47-3.15,2.26-4.71.53-1,1.08-2.06,1.65-3.07l.87-1.53c.59-1,1.2-2,1.82-3a99,99,0,0,1,136.3-31.19l.1.06a17.12,17.12,0,1,1-18,29.11l-.2-.13a64.65,64.65,0,0,0-98.91,59.08c0,.26,0,.51.06.77s.06.7.1,1.05a65.47,65.47,0,0,0,3,14,64.7,64.7,0,0,0,119.2,8.2,17.13,17.13,0,0,1,30.69,15.24Z"/></g><g id="矩形_7-4" data-name="矩形 7-4"><path id="路径_1769-4" data-name="路径 1769-4" class="cls-1" d="M249.33,168.45h0a24.6,24.6,0,0,1-15.53,31.16h0l-70.12,23.49a24.65,24.65,0,0,1-31.21-15.5h0A24.6,24.6,0,0,1,148,176.45h0L218.11,153a24.67,24.67,0,0,1,31.22,15.5Z"/></g></svg>